#Comment line ignore any data following # character 
#Hierarchical Translation and Rotation (.htr) file 
[Header]	
#Header keywords are followed by a single value 
FileType HTR		#Single word string
DataType HTRS		#Translation followed by rotation and scale data
FileVersion 1		#integer
NumSegments 64		#integer
NumFrames 3		#integer
DataFrameRate 30		#integer, data frame rate in this file
EulerRotationOrder ZYX
CalibrationUnits mm
RotationUnits Degrees
GlobalAxisofGravity Y
BoneLengthAxis Y
ScaleFactor 1.00
[SegmentNames&Hierarchy]
#CHILD	PARENT
Pinger_Root GLOBAL
Pelvis Pinger_Root
L_Hip Pelvis
R_Hip Pelvis
Rear_Leg01 Pelvis
Spine1 Pelvis
L_Leg01 L_Hip
L_Leg02 L_Leg01
L_Leg03 L_Leg02
L_Foot L_Leg03
L_Toe1_01 L_Foot
L_Toe2_01 L_Foot
L_Toe3_01 L_Foot
planeAlignerLeft L_Foot
L_Toe1_02 L_Toe1_01
L_Toe1_03 L_Toe1_02
L_Toe2_02 L_Toe2_01
L_Toe2_03 L_Toe2_02
L_Toe3_02 L_Toe3_01
L_Toe3_03 L_Toe3_02
planeLockWeightLeft planeAlignerLeft
R_Leg01 R_Hip
R_Leg02 R_Leg01
R_Leg03 R_Leg02
R_Foot R_Leg03
planeAlignerRight R_Foot
R_Toe1_01 R_Foot
R_Toe2_01 R_Foot
R_Toe3_01 R_Foot
planeLockWeightRight planeAlignerRight
R_Toe1_02 R_Toe1_01
R_Toe1_03 R_Toe1_02
R_Toe2_02 R_Toe2_01
R_Toe2_03 R_Toe2_02
R_Toe3_02 R_Toe3_01
R_Toe3_03 R_Toe3_02
Rear_Leg02 Rear_Leg01
Rear_Leg03 Rear_Leg02
Rear_Leg04 Rear_Leg03
Rear_Foot Rear_Leg04
planeAlignerCenter Rear_Foot
Rear_Toe1_01 Rear_Foot
Rear_Toe2_01 Rear_Foot
Rear_Toe3_01 Rear_Foot
planeLockWeightCenter planeAlignerCenter
Rear_Toe1_02 Rear_Toe1_01
Rear_Toe1_03 Rear_Toe1_02
Rear_Toe2_02 Rear_Toe2_01
Rear_Toe2_03 Rear_Toe2_02
Rear_Toe3_02 Rear_Toe3_01
Rear_Toe3_03 Rear_Toe3_02
Back_Bone Spine1
Head Spine1
Motor_Bone Back_Bone
Ping_Mechanism Back_Bone
BN_LookIK Head
bottomMouth Head
L_Mouth01 Head
L_mouthFront Head
mouthGun Head
R_Mouth01 Head
R_mouthFront Head
TopMouth Head
weapon_bone Head
[BasePosition]
#SegmentName Tx, Ty, Tz, Rx, Ry, Rz, BoneLength
Pinger_Root 0.000000 0.000000 0.000000 -90.000000 0.000000 0.000000 10.000000 
Pelvis 0.000000 0.000000 0.000000 0.000000 0.000000 0.000000 10.000000 
L_Hip 0.000000 0.000000 0.000000 0.000000 0.000000 0.000000 10.000000 
R_Hip 0.000000 0.000000 0.000000 0.000000 0.000000 0.000000 10.000000 
Rear_Leg01 0.000000 0.000000 0.000000 0.000000 0.000000 0.000000 10.000000 
Spine1 0.000000 0.000000 0.000000 0.000000 0.000000 0.000000 10.000000 
L_Leg01 0.000000 0.000000 0.000000 0.000000 0.000000 0.000000 10.000000 
L_Leg02 0.000000 0.000000 0.000000 0.000000 0.000000 0.000000 10.000000 
L_Leg03 0.000000 0.000000 0.000000 0.000000 0.000000 0.000000 10.000000 
L_Foot 0.000000 0.000000 0.000000 0.000000 0.000000 0.000000 10.000000 
L_Toe1_01 0.000000 0.000000 0.000000 0.000000 0.000000 0.000000 10.000000 
L_Toe2_01 0.000000 0.000000 0.000000 0.000000 0.000000 0.000000 10.000000 
L_Toe3_01 0.000000 0.000000 0.000000 0.000000 0.000000 0.000000 10.000000 
planeAlignerLeft 0.000000 0.000000 0.000000 0.000000 0.000000 0.000000 10.000000 
L_Toe1_02 0.000000 0.000000 0.000000 0.000000 0.000000 0.000000 10.000000 
L_Toe1_03 0.000000 0.000000 0.000000 0.000000 0.000000 0.000000 10.000000 
L_Toe2_02 0.000000 0.000000 0.000000 0.000000 0.000000 0.000000 10.000000 
L_Toe2_03 0.000000 0.000000 0.000000 0.000000 0.000000 0.000000 10.000000 
L_Toe3_02 0.000000 0.000000 0.000000 0.000000 0.000000 0.000000 10.000000 
L_Toe3_03 0.000000 0.000000 0.000000 0.000000 0.000000 0.000000 10.000000 
planeLockWeightLeft 0.000000 0.000000 0.000000 0.000000 0.000000 0.000000 10.000000 
R_Leg01 0.000000 0.000000 0.000000 0.000000 0.000000 0.000000 10.000000 
R_Leg02 0.000000 0.000000 0.000000 0.000000 0.000000 0.000000 10.000000 
R_Leg03 0.000000 0.000000 0.000000 0.000000 0.000000 0.000000 10.000000 
R_Foot 0.000000 0.000000 0.000000 0.000000 0.000000 0.000000 10.000000 
planeAlignerRight 0.000000 0.000000 0.000000 0.000000 0.000000 0.000000 10.000000 
R_Toe1_01 0.000000 0.000000 0.000000 0.000000 0.000000 0.000000 10.000000 
R_Toe2_01 0.000000 0.000000 0.000000 0.000000 0.000000 0.000000 10.000000 
R_Toe3_01 0.000000 0.000000 0.000000 0.000000 0.000000 0.000000 10.000000 
planeLockWeightRight 0.000000 0.000000 0.000000 0.000000 0.000000 0.000000 10.000000 
R_Toe1_02 0.000000 0.000000 0.000000 0.000000 0.000000 0.000000 10.000000 
R_Toe1_03 0.000000 0.000000 0.000000 0.000000 0.000000 0.000000 10.000000 
R_Toe2_02 0.000000 0.000000 0.000000 0.000000 0.000000 0.000000 10.000000 
R_Toe2_03 0.000000 0.000000 0.000000 0.000000 0.000000 0.000000 10.000000 
R_Toe3_02 0.000000 0.000000 0.000000 0.000000 0.000000 0.000000 10.000000 
R_Toe3_03 0.000000 0.000000 0.000000 0.000000 0.000000 0.000000 10.000000 
Rear_Leg02 0.000000 0.000000 0.000000 0.000000 0.000000 0.000000 10.000000 
Rear_Leg03 0.000000 0.000000 0.000000 0.000000 0.000000 0.000000 10.000000 
Rear_Leg04 0.000000 0.000000 0.000000 0.000000 0.000000 0.000000 10.000000 
Rear_Foot 0.000000 0.000000 0.000000 0.000000 0.000000 0.000000 10.000000 
planeAlignerCenter 0.000000 0.000000 0.000000 0.000000 0.000000 0.000000 10.000000 
Rear_Toe1_01 0.000000 0.000000 0.000000 0.000000 0.000000 0.000000 10.000000 
Rear_Toe2_01 0.000000 0.000000 0.000000 0.000000 0.000000 0.000000 10.000000 
Rear_Toe3_01 0.000000 0.000000 0.000000 0.000000 0.000000 0.000000 10.000000 
planeLockWeightCenter 0.000000 0.000000 0.000000 0.000000 0.000000 0.000000 10.000000 
Rear_Toe1_02 0.000000 0.000000 0.000000 0.000000 0.000000 0.000000 10.000000 
Rear_Toe1_03 0.000000 0.000000 0.000000 0.000000 0.000000 0.000000 10.000000 
Rear_Toe2_02 0.000000 0.000000 0.000000 0.000000 0.000000 0.000000 10.000000 
Rear_Toe2_03 0.000000 0.000000 0.000000 0.000000 0.000000 0.000000 10.000000 
Rear_Toe3_02 0.000000 0.000000 0.000000 0.000000 0.000000 0.000000 10.000000 
Rear_Toe3_03 0.000000 0.000000 0.000000 0.000000 0.000000 0.000000 10.000000 
Back_Bone 0.000000 0.000000 0.000000 0.000000 0.000000 0.000000 10.000000 
Head 0.000000 0.000000 0.000000 0.000000 0.000000 0.000000 10.000000 
Motor_Bone 0.000000 0.000000 0.000000 0.000000 0.000000 0.000000 10.000000 
Ping_Mechanism 0.000000 0.000000 0.000000 0.000000 0.000000 0.000000 10.000000 
BN_LookIK 0.000000 0.000000 0.000000 0.000000 0.000000 0.000000 10.000000 
bottomMouth 0.000000 0.000000 0.000000 0.000000 0.000000 0.000000 10.000000 
L_Mouth01 0.000000 0.000000 0.000000 0.000000 0.000000 0.000000 10.000000 
L_mouthFront 0.000000 0.000000 0.000000 0.000000 0.000000 0.000000 10.000000 
mouthGun 0.000000 0.000000 0.000000 0.000000 0.000000 0.000000 10.000000 
R_Mouth01 0.000000 0.000000 0.000000 0.000000 0.000000 0.000000 10.000000 
R_mouthFront 0.000000 0.000000 0.000000 0.000000 0.000000 0.000000 10.000000 
TopMouth 0.000000 0.000000 0.000000 0.000000 0.000000 0.000000 10.000000 
weapon_bone 0.000000 0.000000 0.000000 0.000000 0.000000 0.000000 10.000000 
#Beginning of Data. Separated by tabs
#Fr	Tx	Ty	Tz	Rx	Ry	Rz	SF
[Pinger_Root]
81 0.000000 0.000000 0.000000 -0.000069 -0.000029 -44.999985 0.000000
82 0.000000 0.000000 0.000000 -0.000069 -0.000029 -44.999992 0.000000
83 0.000000 0.000000 0.000000 -0.000069 -0.000029 -44.999985 0.000000
[Pelvis]
81 -497.925415 460.174805 3439.929443 -112.912178 -76.225159 112.187698 3506.109619
82 -540.285522 416.215027 3488.425049 -118.170044 -76.366455 115.659805 3554.469482
83 -563.557861 392.111816 3563.644043 -118.891632 -76.902168 114.893143 3629.174316
[L_Hip]
81 5.766392 125.831482 872.656799 160.158691 -45.484905 122.312202 881.701050
82 5.766392 125.831482 872.656799 160.158691 -45.484905 122.312202 881.701050
83 5.766392 125.831482 872.656799 160.158691 -45.484905 122.312202 881.701050
[R_Hip]
81 5.765438 125.836372 -872.654907 38.087841 49.812687 125.703735 881.699829
82 5.765438 125.836372 -872.654907 38.087841 49.812687 125.703735 881.699829
83 5.765438 125.836372 -872.654907 38.087841 49.812687 125.703735 881.699829
[Rear_Leg01]
81 -192.298416 -925.602966 -0.001907 160.692581 11.664389 -167.300049 945.367432
82 -192.298416 -925.602966 -0.001907 165.881821 12.871994 -169.257614 945.367432
83 -192.298416 -925.602966 -0.001907 169.899399 14.252122 -170.786163 945.367432
[Spine1]
81 290.604584 5.007505 0.000477 1.076552 5.082702 9.973302 290.647736
82 290.604584 5.007505 0.000477 2.218596 3.224553 12.076499 290.647736
83 290.604584 5.007505 0.000477 3.169299 1.566695 13.993333 290.647736
[L_Leg01]
81 761.932007 -0.002384 -0.069261 5.499407 -39.995377 55.408535 761.932068
82 761.932007 -0.002384 -0.069261 7.761853 -38.779099 52.891422 761.932068
83 761.932007 -0.002384 -0.069261 10.085227 -37.558090 47.729702 761.932068
[L_Leg02]
81 1441.140503 -0.000954 -0.000715 9.208194 -0.040875 170.183701 1441.140503
82 1441.140503 -0.000954 -0.000715 9.132973 -0.041272 170.980743 1441.140503
83 1441.140503 -0.000954 -0.000715 8.889333 -0.038544 173.577942 1441.140503
[L_Leg03]
81 1686.963989 -0.000715 -0.000954 -0.045171 0.024102 122.520714 1686.963989
82 1686.963989 -0.000715 -0.000954 -0.045176 0.024092 122.495316 1686.963989
83 1686.963989 -0.000715 -0.000954 -0.045182 0.024082 122.469940 1686.963989
[L_Foot]
81 3041.570068 -30.715107 11.297464 -17.895573 16.817881 51.858120 3041.746094
82 3041.570068 -30.715107 11.297464 -17.290394 17.024673 52.181831 3041.746094
83 3041.570068 -30.715107 11.297464 -16.640137 17.635908 52.963928 3041.746094
[L_Toe1_01]
81 -188.216690 -224.732346 -21.137953 89.330788 -2.396121 -161.427643 293.899567
82 -188.216690 -224.732346 -21.137953 89.330788 -2.396121 -161.427643 293.899567
83 -188.216690 -224.732346 -21.137953 89.330788 -2.396121 -161.427643 293.899567
[L_Toe2_01]
81 200.746536 -219.926590 148.838394 -78.791496 -10.652695 -43.374847 332.896027
82 200.746536 -219.926590 148.838394 -78.791496 -10.652695 -43.374847 332.896027
83 200.746536 -219.926590 148.838394 -78.791496 -10.652695 -43.374847 332.896027
[L_Toe3_01]
81 188.832520 -219.859131 -191.078659 -109.186691 26.104877 -48.222935 347.140900
82 188.832520 -219.859131 -191.078659 -109.186691 26.104874 -48.222931 347.140900
83 188.832520 -219.859131 -191.078659 -109.186691 26.104877 -48.222931 347.140900
[planeAlignerLeft]
81 0.812531 -811.448792 -0.314951 0.000000 -90.000000 -90.001900 811.449280
82 0.812531 -811.448792 -0.314951 0.000000 -90.000000 -90.001900 811.449280
83 0.812531 -811.448792 -0.314951 0.000000 -90.000000 -90.001900 811.449280
[L_Toe1_02]
81 413.761139 0.000477 0.000000 0.000203 -25.410625 -0.000182 413.761139
82 413.761139 0.000477 0.000000 0.000203 -25.410625 -0.000182 413.761139
83 413.761139 0.000477 0.000000 0.000203 -25.410625 -0.000182 413.761139
[L_Toe1_03]
81 464.317322 0.000358 -0.000089 0.004933 62.473137 0.004933 464.317322
82 464.317322 0.000358 -0.000089 0.004933 62.473137 0.004933 464.317322
83 464.317322 0.000358 -0.000089 0.004933 62.473137 0.004933 464.317322
[L_Toe2_02]
81 342.235809 -0.000477 0.000238 -0.000101 -70.104240 0.000129 342.235809
82 342.235809 -0.000477 0.000238 -0.000101 -70.104240 0.000129 342.235809
83 342.235809 -0.000477 0.000238 -0.000101 -70.104240 0.000129 342.235809
[L_Toe2_03]
81 420.210846 -0.000715 0.000000 0.016997 82.081528 0.016997 420.210846
82 420.210846 -0.000715 0.000000 0.016997 82.081528 0.016997 420.210846
83 420.210846 -0.000715 0.000000 0.016997 82.081528 0.016997 420.210846
[L_Toe3_02]
81 329.270111 0.000954 0.000000 0.001178 -80.668365 0.001178 329.270111
82 329.270111 0.000954 0.000000 0.001178 -80.668365 0.001178 329.270111
83 329.270111 0.000954 0.000000 0.001178 -80.668365 0.001178 329.270111
[L_Toe3_03]
81 439.137451 -0.001907 0.000954 -179.996323 77.872643 -179.992813 439.137451
82 439.137451 -0.001907 0.000954 -179.996323 77.872643 -179.992813 439.137451
83 439.137451 -0.001907 0.000954 -179.996323 77.872643 -179.992813 439.137451
[planeLockWeightLeft]
81 -0.000954 0.000238 -0.000305 -0.011826 -0.004376 0.005620 0.001029
82 -0.000954 0.000238 -0.000305 -0.011826 -0.004376 0.005620 0.001029
83 -0.000954 0.000238 -0.000305 -0.011826 -0.004376 0.005620 0.001029
[R_Leg01]
81 761.455627 -0.001907 -0.000358 67.386497 -70.745262 58.539967 761.455688
82 761.455627 -0.001907 -0.000358 66.045494 -67.347321 59.743576 761.455688
83 761.455627 -0.001907 -0.000358 64.968330 -63.872692 60.046597 761.455688
[R_Leg02]
81 1441.140625 0.000000 -0.000238 -2.840638 -1.127132 -164.255936 1441.140625
82 1441.140625 0.000000 -0.000238 -2.607684 -0.952647 -156.394073 1441.140625
83 1441.140625 0.000000 -0.000238 -2.389678 -0.794303 -149.407990 1441.140625
[R_Leg03]
81 1686.963989 0.000954 0.001431 0.110073 -0.067289 140.425598 1686.963989
82 1686.963989 0.000954 0.001431 0.104326 -0.063349 139.369141 1686.963989
83 1686.963989 0.000954 0.001431 0.104975 -0.062268 138.185532 1686.963989
[R_Foot]
81 3041.560059 -30.531288 -11.204481 26.085903 -19.435036 42.152657 3041.734131
82 3041.560059 -30.531288 -11.204481 27.042906 -19.645378 39.041435 3041.734131
83 3041.560059 -30.531288 -11.204481 27.503786 -19.834377 36.487602 3041.734131
[planeAlignerRight]
81 -0.635147 -812.270569 -0.364304 0.000000 -89.960434 -90.005180 812.270874
82 -0.635147 -812.270569 -0.364304 0.000000 -89.960434 -90.005180 812.270874
83 -0.635147 -812.270569 -0.364304 0.000000 -89.960434 -90.005180 812.270874
[R_Toe1_01]
81 -188.383347 -224.864899 21.052242 90.478722 3.231926 -161.378860 294.101532
82 -188.383347 -224.864899 21.052242 90.478722 3.231926 -161.378860 294.101532
83 -188.383347 -224.864899 21.052242 90.478722 3.231926 -161.378860 294.101532
[R_Toe2_01]
81 200.637817 -220.002121 -148.787384 -105.368958 18.813929 -49.808262 332.857574
82 200.637817 -220.002121 -148.787384 -105.368950 18.813925 -49.808262 332.857574
83 200.637817 -220.002121 -148.787384 -105.368958 18.813929 -49.808266 332.857574
[R_Toe3_01]
81 188.606735 -220.092957 191.126343 -76.041084 -6.322367 -46.892487 347.192566
82 188.606735 -220.092957 191.126343 -76.041084 -6.322367 -46.892487 347.192566
83 188.606735 -220.092957 191.126343 -76.041084 -6.322367 -46.892487 347.192566
[planeLockWeightRight]
81 -0.000477 0.000000 0.000000 -0.011823 -0.004379 -0.000027 0.000477
82 -0.000477 0.000000 0.000000 -0.011823 -0.004379 -0.000027 0.000477
83 -0.000477 0.000000 0.000000 -0.011823 -0.004379 -0.000027 0.000477
[R_Toe1_02]
81 413.762085 0.000477 -0.000119 0.001401 -23.743965 0.001401 413.762085
82 413.762085 0.000477 -0.000119 0.001401 -23.743965 0.001401 413.762085
83 413.762085 0.000477 -0.000119 0.001401 -23.743965 0.001401 413.762085
[R_Toe1_03]
81 464.317810 0.000000 0.001088 0.008919 74.877419 0.008919 464.317810
82 464.317810 0.000000 0.001088 0.008919 74.877419 0.008919 464.317810
83 464.317810 0.000000 0.001088 0.008919 74.877419 0.008919 464.317810
[R_Toe2_02]
81 342.234741 -0.000954 0.000238 0.001188 -72.306252 0.001188 342.234741
82 342.234741 -0.000954 0.000238 0.001188 -72.306221 0.001188 342.234741
83 342.234741 -0.000954 0.000238 0.001188 -72.306168 0.001188 342.234741
[R_Toe2_03]
81 420.210846 0.000715 -0.000268 0.028203 85.230133 0.028203 420.210846
82 420.210846 0.000715 -0.000268 0.028203 85.230049 0.028203 420.210846
83 420.210846 0.000715 -0.000268 0.028203 85.229973 0.028203 420.210846
[R_Toe3_02]
81 329.270355 -0.000477 -0.000954 0.001177 -80.843628 0.001177 329.270355
82 329.270355 -0.000477 -0.000954 0.001177 -80.843628 0.001177 329.270355
83 329.270355 -0.000477 -0.000954 0.001177 -80.843628 0.001177 329.270355
[R_Toe3_03]
81 439.137939 0.000238 0.001431 -179.996658 77.077652 -179.993134 439.137939
82 439.137939 0.000238 0.001431 -179.996658 77.077728 -179.993134 439.137939
83 439.137939 0.000238 0.001431 -179.996658 77.077744 -179.993134 439.137939
[Rear_Leg02]
81 1162.777710 -0.029802 0.005960 0.006263 0.112217 -165.212601 1162.777710
82 1162.777710 -0.029802 0.005960 0.003272 0.112344 -168.264832 1162.777710
83 1162.777710 -0.029802 0.005960 0.002755 0.112358 -168.791687 1162.777710
[Rear_Leg03]
81 607.192505 -0.013351 -0.073195 0.010092 -0.005856 76.606644 607.192505
82 607.192505 -0.013351 -0.073195 0.010060 -0.005912 77.238243 607.192505
83 607.192505 -0.013351 -0.073195 0.010055 -0.005921 77.339561 607.192505
[Rear_Leg04]
81 995.874512 -0.020504 -0.011921 -0.042860 -0.018104 88.358757 995.874573
82 995.874512 -0.020504 -0.011921 -0.043188 -0.017306 90.483871 995.874573
83 995.874512 -0.020504 -0.011921 -0.043243 -0.017167 90.852417 995.874573
[Rear_Foot]
81 3096.176270 -0.067472 -0.041425 -0.324258 83.073914 -162.591125 3096.176270
82 3096.176270 -0.067472 -0.041425 -0.190834 77.525513 -164.766174 3096.176270
83 3096.176270 -0.067472 -0.041425 -0.128442 73.953400 -167.369171 3096.176270
[planeAlignerCenter]
81 0.350077 0.966311 -838.790894 0.000009 0.000003 -179.999985 838.791565
82 0.350077 0.966311 -838.790894 0.000009 0.000003 -179.999985 838.791565
83 0.350077 0.966311 -838.790894 0.000009 0.000003 -179.999985 838.791565
[Rear_Toe1_01]
81 0.653352 83.966492 -371.173737 0.293527 41.923187 90.411819 380.553192
82 0.653352 83.966492 -371.173737 0.293571 41.923149 90.411842 380.553192
83 0.653352 83.966492 -371.173737 0.293612 41.923115 90.411873 380.553192
[Rear_Toe2_01]
81 178.200760 -294.826019 -362.060547 -2.183342 34.542820 -64.361519 499.765686
82 178.200760 -294.826019 -362.060547 -2.183312 34.542778 -64.361511 499.765686
83 178.200760 -294.826019 -362.060547 -2.183281 34.542736 -64.361488 499.765686
[Rear_Toe3_01]
81 -153.359680 -308.780914 -362.060852 3.870838 33.514248 -112.318695 499.952881
82 -153.359680 -308.780914 -362.060852 3.870838 33.514248 -112.318695 499.952881
83 -153.359680 -308.780914 -362.060852 3.870838 33.514248 -112.318695 499.952881
[planeLockWeightCenter]
81 -0.000062 0.000238 0.000000 -0.011814 -0.004373 -0.000015 0.000246
82 -0.000062 0.000238 0.000000 -0.011814 -0.004373 -0.000015 0.000246
83 -0.000062 0.000238 0.000000 -0.011814 -0.004373 -0.000015 0.000246
[Rear_Toe1_02]
81 379.707825 0.194073 0.000477 -0.000242 -31.674580 0.006934 379.707855
82 379.707825 0.194073 0.000477 -0.000242 -31.674631 0.006934 379.707855
83 379.707825 0.194073 0.000477 -0.000242 -31.674675 0.006934 379.707855
[Rear_Toe1_03]
81 500.129700 0.165701 0.000119 -0.000106 51.879047 0.007293 500.129761
82 500.129700 0.165701 0.000119 -0.000106 51.879166 0.007293 500.129761
83 500.129700 0.165701 0.000119 -0.000106 51.879326 0.007293 500.129761
[Rear_Toe2_02]
81 340.494507 0.000238 -0.000954 0.001192 -69.854523 0.001192 340.494507
82 340.494507 0.000238 -0.000954 0.001192 -69.854523 0.001192 340.494507
83 340.494507 0.000238 -0.000954 0.001192 -69.854523 0.001192 340.494507
[Rear_Toe2_03]
81 433.103577 0.000000 0.000238 0.006694 69.804291 0.006694 433.103546
82 433.103577 0.000000 0.000238 0.006694 69.804291 0.006694 433.103546
83 433.103577 0.000000 0.000238 0.006694 69.804291 0.006694 433.103546
[Rear_Toe3_02]
81 340.494141 -0.000358 -0.000477 0.008285 -67.268761 -0.009458 340.494171
82 340.494141 -0.000358 -0.000477 0.008285 -67.268761 -0.009458 340.494171
83 340.494141 -0.000358 -0.000477 0.008285 -67.268761 -0.009458 340.494171
[Rear_Toe3_03]
81 433.103577 0.001431 -0.000238 -0.000971 65.950630 -0.004546 433.103546
82 433.103577 0.001431 -0.000238 -0.000971 65.950676 -0.004546 433.103546
83 433.103577 0.001431 -0.000238 -0.000971 65.950714 -0.004546 433.103546
[Back_Bone]
81 1312.175781 -701.934692 0.000954 0.000023 -0.000007 -85.606667 1488.125488
82 1312.175781 -701.934692 0.000954 0.000023 -0.000007 -85.606667 1488.125488
83 1312.175781 -701.934692 0.000954 0.000023 -0.000007 -85.606667 1488.125488
[Head]
81 1406.159424 809.709290 0.001431 0.000263 -1.475624 7.796126 1622.625488
82 1406.159424 809.709290 0.001431 0.000444 -1.475624 7.782077 1622.625488
83 1406.159424 809.709290 0.001431 0.000625 -1.475623 7.768025 1622.625488
[Motor_Bone]
81 1158.364380 -417.834747 0.000477 -0.123916 0.061951 -105.915710 1231.419434
82 1158.364380 -417.834747 0.000477 -0.123322 0.062246 -105.915695 1231.419434
83 1158.364380 -417.834747 0.000477 -0.122727 0.062541 -105.915695 1231.419434
[Ping_Mechanism]
81 1234.127930 -437.949493 -3.154119 0.000103 -0.000053 82.120995 1309.534790
82 1234.113037 -438.700867 -2.652502 0.000103 -0.000053 82.120995 1309.771118
83 1234.097900 -439.452209 -2.150881 0.000103 -0.000053 82.120995 1310.007813
[BN_LookIK]
81 193.241119 1380.371704 -0.002861 0.000000 89.965736 -31.038179 1393.832153
82 193.241119 1380.371704 -0.002861 0.000000 89.965736 -31.038179 1393.832153
83 193.241119 1380.371704 -0.002861 0.000000 89.965736 -31.038179 1393.832153
[bottomMouth]
81 -435.092926 615.759399 -0.000954 -0.000022 0.000016 73.527184 753.966492
82 -435.092926 615.759399 -0.000954 -0.000022 0.000016 73.527184 753.966492
83 -435.092926 615.759399 -0.000954 -0.000022 0.000016 73.527184 753.966492
[L_Mouth01]
81 554.440979 7.658243 838.222046 150.204178 23.759130 109.605339 1005.027161
82 554.440979 7.658243 838.222046 150.204178 23.759130 109.605339 1005.027161
83 554.440979 7.658243 838.222046 150.204178 23.759130 109.605339 1005.027161
[L_mouthFront]
81 551.629089 934.514771 339.150421 0.000081 2.804060 79.119301 1136.941284
82 551.629089 934.514771 339.150421 0.000081 2.804060 79.119301 1136.941284
83 551.629089 934.514771 339.150421 0.000081 2.804060 79.119301 1136.941284
[mouthGun]
81 55.332661 1627.420898 0.000000 0.000023 0.000009 -11.038128 1628.361328
82 55.332661 1627.420898 0.000000 0.000023 0.000009 -11.038128 1628.361328
83 55.332661 1627.420898 0.000000 0.000023 0.000009 -11.038128 1628.361328
[R_Mouth01]
81 554.442383 7.659197 -838.223938 29.795891 -23.759109 109.605331 1005.029541
82 554.442383 7.659197 -838.223938 29.795891 -23.759109 109.605331 1005.029541
83 554.442383 7.659197 -838.223938 29.795891 -23.759109 109.605331 1005.029541
[R_mouthFront]
81 551.629089 934.514282 -339.151367 0.000029 -2.803930 79.119133 1136.941162
82 551.629089 934.514282 -339.151367 0.000029 -2.803930 79.119133 1136.941162
83 551.629089 934.514282 -339.151367 0.000029 -2.803930 79.119133 1136.941162
[TopMouth]
81 461.269867 -56.106091 -0.008583 -0.000059 -0.000268 92.025169 464.669525
82 461.269867 -56.106091 -0.008583 -0.000059 -0.000268 92.025169 464.669525
83 461.269867 -56.106091 -0.008583 -0.000059 -0.000268 92.025169 464.669525
[weapon_bone]
81 -987.239868 1448.372803 0.001431 0.000000 89.965736 -31.038221 1752.833740
82 -987.239868 1448.372803 0.001431 0.000000 89.965736 -31.038221 1752.833740
83 -987.239868 1448.372803 0.001431 0.000000 89.965736 -31.038221 1752.833740
